<svg viewBox="0 0 200 200" xmlns="http://www.w3.org/2000/svg">
  <!-- Définition des dégradés et filtres -->
  <defs>
    <radialGradient id="bgGradient" cx="50%" cy="50%" r="75%" fx="50%" fy="50%">
      <stop offset="0%" stop-color="#252842" />
      <stop offset="100%" stop-color="#1a1d2d" />
    </radialGradient>
    
    <linearGradient id="branchGradient" x1="0%" y1="0%" x2="100%" y2="0%">
      <stop offset="0%" stop-color="#5E6AD2" />
      <stop offset="50%" stop-color="#7a85e0" />
      <stop offset="100%" stop-color="#5E6AD2" />
    </linearGradient>
    
    <filter id="glow" x="-20%" y="-20%" width="140%" height="140%">
      <feGaussianBlur stdDeviation="1.5" result="blur" />
      <feComposite in="SourceGraphic" in2="blur" operator="over" />
    </filter>
  </defs>
  
  <!-- Fond -->
  <circle cx="100" cy="100" r="85" fill="url(#bgGradient)" />
  
  <!-- Points lumineux du fond (étoiles) -->
  <g opacity="0.6">
    <circle cx="30" cy="60" r="0.7" fill="#ffffff" />
    <circle cx="45" cy="40" r="0.5" fill="#ffffff" />
    <circle cx="60" cy="25" r="0.8" fill="#ffffff" />
    <circle cx="85" cy="30" r="0.6" fill="#ffffff" />
    <circle cx="120" cy="25" r="0.7" fill="#ffffff" />
    <circle cx="145" cy="30" r="0.5" fill="#ffffff" />
    <circle cx="165" cy="45" r="0.8" fill="#ffffff" />
    <circle cx="170" cy="70" r="0.6" fill="#ffffff" />
    <circle cx="175" cy="95" r="0.7" fill="#ffffff" />
    <circle cx="170" cy="125" r="0.5" fill="#ffffff" />
    <circle cx="155" cy="150" r="0.8" fill="#ffffff" />
    <circle cx="130" cy="170" r="0.6" fill="#ffffff" />
    <circle cx="100" cy="175" r="0.7" fill="#ffffff" />
    <circle cx="70" cy="170" r="0.5" fill="#ffffff" />
    <circle cx="45" cy="150" r="0.8" fill="#ffffff" />
    <circle cx="30" cy="125" r="0.6" fill="#ffffff" />
    <circle cx="25" cy="95" r="0.7" fill="#ffffff" />
  </g>
  
  <!-- Structure Git simplifiée - seulement deux branches qui partent du nœud central -->
  <!-- Branche vers nœud 1 -->
  <path 
    d="M90,90 C75,75 65,65 50,60" 
    stroke="url(#branchGradient)" 
    stroke-width="6" 
    fill="none" 
    stroke-linecap="round"
    filter="url(#glow)" />
    
  <!-- Branche vers nœud 2 -->
  <path 
    d="M110,110 C125,125 135,135 150,140" 
    stroke="url(#branchGradient)" 
    stroke-width="6" 
    fill="none" 
    stroke-linecap="round"
    filter="url(#glow)" />
  
  <!-- Nœud central (environnement principal) - légèrement décalé pour un meilleur équilibre -->
  <circle cx="100" cy="100" r="18" fill="#5E6AD2" stroke="#ffffff" stroke-width="2" />
  <circle cx="100" cy="100" r="8" fill="#ffffff" opacity="0.7" />
  
  <!-- Seulement deux nœuds secondaires (environnements éphémères) -->
  <circle cx="50" cy="60" r="14" fill="#5E6AD2" stroke="#ffffff" stroke-width="1.5" />
  <circle cx="50" cy="60" r="6" fill="#ffffff" opacity="0.7" />
  
  <circle cx="150" cy="140" r="14" fill="#5E6AD2" stroke="#ffffff" stroke-width="1.5" />
  <circle cx="150" cy="140" r="6" fill="#ffffff" opacity="0.7" />
  
  <!-- Éléments orbitaux autour du nœud central -->
  <g opacity="0.4">
    <ellipse cx="100" cy="100" rx="25" ry="8" stroke="#ffffff" stroke-width="1" fill="none" transform="rotate(30,100,100)" />
    <ellipse cx="100" cy="100" rx="28" ry="6" stroke="#ffffff" stroke-width="0.5" fill="none" transform="rotate(-30,100,100)" />
  </g>
</svg>